PathFileType	4	(X/Y/Z)	E:\Studenten\Marcel_BSc\Ayumi_25_09_2024\25-09-2024\static_00.trc
DataRate	CameraRate	NumFrames	NumMarkers	Units	OrigDataRate	OrigDataStartFrame	OrigNumFrames
200.0	200.0	5	62	mm	200.0	1	295	
Frame#	Time	LASI			RASI			RSACR			LSACR			USACR			LBAR			RBAR			RHEE			RMT1			RMT5			RMT2			LHEE			LMT1			LMT5			LMT2			LMMAL			LMFC			LLFC			LLMAL			LTIB4			LTIB2			LTIB3			LTIB1			RMMAL			RMFC			RLFC			RLMAL			RTIB1			RTIB2			RTIB3			RTHI1			RTHI4			RTHI3			RTHI2			LTHI1			LTHI4			LTHI3			LTHI2			FHD			LBHD			RBHD			C7			T10			CLAV			LSHO			RSHO			LRAD			LUL			LRFIN			RRAD			RUL			RUFIN			RLEP			RMEP			LLEP			LMEP			LDUPA			LMUPA			LUUPA			RDUPA			RUUPA			RMUPA			
		X1	Y1	Z1	X2	Y2	Z2	X3	Y3	Z3	X4	Y4	Z4	X5	Y5	Z5	X6	Y6	Z6	X7	Y7	Z7	X8	Y8	Z8	X9	Y9	Z9	X10	Y10	Z10	X11	Y11	Z11	X12	Y12	Z12	X13	Y13	Z13	X14	Y14	Z14	X15	Y15	Z15	X16	Y16	Z16	X17	Y17	Z17	X18	Y18	Z18	X19	Y19	Z19	X20	Y20	Z20	X21	Y21	Z21	X22	Y22	Z22	X23	Y23	Z23	X24	Y24	Z24	X25	Y25	Z25	X26	Y26	Z26	X27	Y27	Z27	X28	Y28	Z28	X29	Y29	Z29	X30	Y30	Z30	X31	Y31	Z31	X32	Y32	Z32	X33	Y33	Z33	X34	Y34	Z34	X35	Y35	Z35	X36	Y36	Z36	X37	Y37	Z37	X38	Y38	Z38	X39	Y39	Z39	X40	Y40	Z40	X41	Y41	Z41	X42	Y42	Z42	X43	Y43	Z43	X44	Y44	Z44	X45	Y45	Z45	X46	Y46	Z46	X47	Y47	Z47	X48	Y48	Z48	X49	Y49	Z49	X50	Y50	Z50	X51	Y51	Z51	X52	Y52	Z52	X53	Y53	Z53	X54	Y54	Z54	X55	Y55	Z55	X56	Y56	Z56	X57	Y57	Z57	X58	Y58	Z58	X59	Y59	Z59	X60	Y60	Z60	X61	Y61	Z61	X62	Y62	Z62	
1	0	134.79384	918.20923	-762.62164	130.56145	918.7699	-984.8363	310.44223	950.28979	-912.51923	309.64291	953.53693	-852.55402	298.79437	966.66345	-882.50598	1270.7828	26.251879	346.5293	1226.4337	26.210268	-1876.8226	323.07159	39.828362	-1019.6785	128.14172	43.515347	-1043.3464	165.08516	34.827564	-1113.6978	140.18863	42.714302	-1079.9979	326.30209	45.829723	-745.13928	134.39859	46.339027	-736.4483	169.92299	33.474487	-662.75555	143.17117	45.933964	-698.0459	276.68777	72.956444	-778.6687	233.37778	456.91855	-829.15784	219.79962	454.04739	-721.54169	278.81467	69.080925	-700.91992	290.46576	209.58104	-691.5531	314.24344	270.85883	-691.5163	263.66745	268.151	-684.5293	301.95157	314.28122	-687.18445	275.13879	68.373917	-994.03882	235.8439	446.60211	-935.52991	221.27036	461.40494	-1041.4276	284.7879	72.230133	-1068.7405	257.51578	319.30344	-1082.7939	307.99185	313.95728	-1077.2941	276.95224	256.1373	-1081.4302	242.86896	783.97607	-1060.1727	243.78491	635.3219	-1066.1224	192.37325	637.13617	-1066.8129	220.28117	697.13995	-1070.3124	239.45187	778.98425	-698.95575	237.2196	646.83636	-694.85809	186.54933	637.58685	-693.65363	201.08905	701.32062	-689.50513	132.60066	1593.3746	-775.14148	243.28319	1575.8348	-786.35455	254.57817	1571.3223	-909.86151	264.03146	1391.4059	-857.76575	286.75681	1007.6688	-877.526	141.30702	1329.0836	-872.79279	245.18044	1380.9431	-724.75183	237.61099	1397.069	-986.89905	164.41997	1357.1832	-222.64528	205.05898	1352.8014	-222.02052	150.89742	1336.5297	-130.71617	242.8244	1388.3564	-1500.843	289.67392	1382.0575	-1499.822	237.29614	1390.4326	-1591.0093	294.56946	1329.4287	-1271.274	256.16586	1295.9095	-1271.8528	220.65541	1299.8041	-453.87708	179.75864	1277.4515	-466.82532	237.0777	1353.6504	-505.76324	201.29422	1371.3507	-536.3786	238.50546	1362.3177	-584.86621	267.53052	1382.0663	-1205.8817	258.10916	1383.8643	-1144.197	217.26965	1385.2391	-1212.5164
2	0.005	134.78593	918.19873	-762.61188	130.56078	918.76746	-984.83813	310.43344	950.29242	-912.50391	309.62967	953.55322	-852.55621	298.78244	966.66724	-882.4928	1270.7809	26.253183	346.53894	1226.438	26.201836	-1876.8099	323.0788	39.830109	-1019.6697	128.14781	43.503536	-1043.3521	165.07744	34.834049	-1113.7029	140.18964	42.717922	-1080.0049	326.30344	45.830452	-745.14459	134.39955	46.336243	-736.45044	169.9241	33.466248	-662.75525	143.17404	45.933468	-698.05194	276.68875	72.966759	-778.66962	233.37399	456.91318	-829.1629	219.80734	454.05084	-721.53815	278.79813	69.087135	-700.92303	290.48013	209.56721	-691.55634	314.21478	270.92297	-691.50745	263.66736	268.15024	-684.52576	301.94693	314.30502	-687.16345	275.14859	68.374779	-994.03662	235.85254	446.59937	-935.52014	221.29639	461.39847	-1041.4159	284.79083	72.229233	-1068.7416	257.52148	319.30301	-1082.7965	307.99942	313.96439	-1077.2936	276.96429	256.14313	-1081.4253	242.86275	783.98541	-1060.1763	243.80927	635.34106	-1066.1409	192.37691	637.16345	-1066.8276	220.29358	697.1701	-1070.3199	239.44038	778.98859	-698.9472	237.16675	646.63605	-695.38782	186.53751	637.58765	-693.65076	201.08522	701.31708	-689.50067	132.56361	1593.3806	-775.14307	243.22789	1575.8164	-786.36115	254.54781	1571.3083	-909.85162	263.99619	1391.4088	-857.76349	286.74606	1007.6741	-877.52838	141.26546	1329.0759	-872.78845	245.15456	1380.949	-724.74414	237.58485	1397.0715	-986.8894	164.40733	1357.1599	-222.64	205.05621	1352.7825	-222.00948	150.9117	1336.4832	-130.69774	242.79012	1388.3629	-1500.8395	289.6413	1382.0598	-1499.8124	237.27812	1390.448	-1591.0018	294.51178	1329.438	-1271.2677	256.12009	1295.9163	-1271.8502	220.62714	1299.7917	-453.8902	179.73521	1277.4371	-466.8248	237.05492	1353.6411	-505.76025	201.2648	1371.3362	-536.37512	238.56451	1362.1199	-584.89636	267.48721	1382.0677	-1205.8809	258.07407	1383.8673	-1144.1882	217.21054	1385.2355	-1212.5181
3	0.01	134.77597	918.19482	-762.60547	130.55394	918.75604	-984.82861	310.42764	950.30072	-912.50421	309.63058	953.55524	-852.54315	298.75903	966.66327	-882.49445	1270.783	26.258299	346.54727	1226.4393	26.204704	-1876.8132	323.07394	39.831768	-1019.6786	128.14871	43.492115	-1043.3392	165.08075	34.828915	-1113.7028	140.19543	42.714993	-1079.9998	326.30331	45.833206	-745.1441	134.40044	46.331341	-736.43683	169.92712	33.468872	-662.74847	143.17357	45.933769	-698.0426	276.68231	72.96093	-778.67511	233.38208	456.92517	-829.15985	219.81528	454.05536	-721.53571	278.80768	69.091446	-700.91815	290.48376	209.56747	-691.56006	314.24924	270.86758	-691.50714	263.66592	268.15131	-684.52728	301.94901	314.2944	-687.16193	275.14401	68.380005	-994.03772	235.86739	446.59488	-935.51782	221.31441	461.40176	-1041.4186	284.79501	72.226311	-1068.7361	257.53693	319.29791	-1082.7748	308.01471	313.95645	-1077.2711	276.9726	256.15082	-1081.4175	242.86617	783.98279	-1060.1654	243.82231	635.341	-1066.0797	192.39349	637.1781	-1066.8335	220.16914	697.25818	-1070.3776	239.44804	778.98785	-698.95355	237.20323	646.82092	-694.85944	186.54242	637.58807	-693.65253	201.09428	701.32263	-689.50073	132.53525	1593.3812	-775.13599	243.20221	1575.8064	-786.35571	254.5237	1571.2925	-909.84741	263.96884	1391.417	-857.75439	286.74265	1007.6744	-877.52246	141.22763	1329.0676	-872.78613	245.12488	1380.9338	-724.73633	237.53961	1397.0706	-986.89294	164.41179	1357.1323	-222.62903	205.05847	1352.7745	-222.01248	150.9216	1336.4486	-130.69127	242.75314	1388.3679	-1500.8346	289.60651	1382.0609	-1499.8115	237.25128	1390.4652	-1591.0044	294.48056	1329.4519	-1271.2695	256.07535	1295.9291	-1271.8409	220.62076	1299.7788	-453.87778	179.71901	1277.4285	-466.8194	237.03543	1353.6277	-505.74976	201.26357	1371.3383	-536.36115	238.46313	1362.3174	-584.87238	267.42914	1382.0764	-1205.8811	258.02991	1383.8735	-1144.1827	217.18642	1385.2389	-1212.4944
4	0.015	134.77431	918.18787	-762.5965	130.54559	918.74982	-984.82642	310.41678	950.30817	-912.49243	309.63065	953.55975	-852.54132	298.76099	966.67902	-882.48169	1270.7899	26.273209	346.54269	1226.4407	26.196632	-1876.8014	323.07178	39.819942	-1019.6808	128.15997	43.488583	-1043.3364	165.07887	34.821011	-1113.6992	140.19669	42.716099	-1080.0071	326.29956	45.836555	-745.14508	134.39738	46.331703	-736.4491	169.92255	33.469872	-662.75067	143.1729	45.930782	-698.04041	276.68875	72.957588	-778.66882	233.38884	456.92447	-829.15302	219.81447	454.05469	-721.52747	278.81641	69.096695	-700.92853	290.49094	209.57091	-691.5484	314.24268	270.86603	-691.49969	263.67517	268.1532	-684.52661	301.95529	314.26321	-687.1756	275.14417	68.372002	-994.0365	235.86826	446.60049	-935.50293	221.31273	461.40524	-1041.4243	284.79129	72.218697	-1068.7345	257.53479	319.31201	-1082.7854	308.02673	313.9675	-1077.2655	276.98566	256.13474	-1081.4053	242.87239	783.98059	-1060.1593	243.83107	635.33295	-1066.0944	192.41228	637.15845	-1066.8076	220.1727	697.27539	-1070.3721	239.44066	778.99402	-698.94812	237.17395	646.64709	-695.39453	186.53415	637.58612	-693.64697	201.0779	701.32361	-689.50403	132.52722	1593.363	-775.12256	243.17397	1575.7885	-786.35663	254.49139	1571.2754	-909.84778	263.94583	1391.4159	-857.75708	286.73007	1007.6814	-877.52618	141.19962	1329.0647	-872.77448	245.10083	1380.9381	-724.73651	237.51837	1397.0728	-986.88281	164.41264	1357.1233	-222.62086	205.05975	1352.7601	-222.01112	150.9287	1336.4254	-130.68488	242.71788	1388.3768	-1500.8348	289.56241	1382.0712	-1499.8083	237.22038	1390.4735	-1590.9912	294.4299	1329.4601	-1271.2581	256.03738	1295.9404	-1271.8367	220.60017	1299.7633	-453.87781	179.70589	1277.4148	-466.82281	237.01785	1353.6157	-505.74417	201.24388	1371.3263	-536.35065	238.52303	1362.1069	-584.88403	267.37387	1382.0771	-1205.8677	257.98831	1383.879	-1144.1796	217.11453	1385.2555	-1212.5056
5	0.02	134.76028	918.18781	-762.58948	130.54492	918.74713	-984.82068	310.3988	950.31537	-912.49414	309.60822	953.56458	-852.54675	298.74887	966.67548	-882.47107	1270.7798	26.253601	346.51669	1226.4291	26.211863	-1876.8224	323.0741	39.829491	-1019.6741	128.14713	43.496025	-1043.3451	165.0813	34.826931	-1113.7064	140.19093	42.713699	-1080.0042	326.29654	45.82571	-745.13696	134.39941	46.325607	-736.44635	169.91858	33.456108	-662.75897	143.17606	45.923206	-698.03961	276.68933	72.961006	-778.67151	233.41319	456.93088	-829.1524	219.81461	454.05283	-721.52698	278.80966	69.091438	-700.91858	290.48526	209.56534	-691.53961	314.21387	270.9205	-691.49725	263.6842	268.15137	-684.51239	301.97189	314.26654	-687.1676	275.14835	68.369873	-994.0473	235.88568	446.58667	-935.50653	221.32072	461.39996	-1041.4205	284.78543	72.218681	-1068.7294	257.55255	319.30594	-1082.7721	308.03992	313.96494	-1077.2502	276.991	256.14682	-1081.4211	242.87978	783.98163	-1060.1486	243.71753	635.15289	-1064.9242	192.44499	637.16901	-1066.8163	220.33226	697.12097	-1070.2891	239.45552	778.99658	-698.94983	237.18022	646.66235	-695.38434	186.54999	637.58411	-693.62988	201.08095	701.3222	-689.48364	132.48714	1593.3496	-775.12091	243.13135	1575.7654	-786.35437	254.45309	1571.2722	-909.8385	263.91714	1391.4174	-857.74841	286.71716	1007.6838	-877.52228	141.17921	1329.0604	-872.77283	245.06148	1380.9301	-724.7359	237.47427	1397.0695	-986.88116	164.40997	1357.1038	-222.612	205.04611	1352.7391	-222.01385	150.93356	1336.4008	-130.67717	242.67743	1388.3806	-1500.8318	289.53275	1382.0817	-1499.807	237.17905	1390.4851	-1590.9868	294.38394	1329.4734	-1271.2683	256.00247	1295.9427	-1271.8292	220.6138	1299.7526	-453.87186	179.69647	1277.4064	-466.82117	237.00002	1353.5936	-505.73163	201.24829	1371.309	-536.35358	238.4812	1362.1985	-584.80756	267.33633	1382.0858	-1205.8647	257.9462	1383.8893	-1144.1771	217.07355	1385.2545	-1212.4923
